<?xml version="1.0" encoding="UTF-8"?> <svg xmlns="http://www.w3.org/2000/svg" width="66" height="66" viewBox="0 0 66 66" fill="none"> <path fill-rule="evenodd" clip-rule="evenodd" d="M61.6381 0.793079C62.1668 0.26436 62.7748 0 63.4621 0C64.1495 0 64.7575 0.26436 65.2862 0.793079C65.7621 1.26893 66 1.86373 66 2.57751C66 3.29128 65.7621 3.88609 65.2862 4.36193L49.266 20.3028H63.4621C64.1495 20.3028 64.7443 20.554 65.2466 21.0562C65.7489 21.5585 66 22.1533 66 22.8407C66 23.5809 65.7489 24.1889 65.2466 24.6647C64.7443 25.1406 64.1495 25.3785 63.4621 25.3785H43.1593C42.9479 25.3785 42.7496 25.3653 42.5645 25.3389C42.3795 25.3124 42.2076 25.2463 42.049 25.1406H42.0094H41.9697V25.1009V25.0613H41.8904H41.8111V24.982H41.7318C41.7318 24.9291 41.7186 24.9027 41.6921 24.9027H41.6525H41.5732C41.5203 24.7969 41.4542 24.7176 41.3749 24.6647C41.2956 24.6119 41.2295 24.5326 41.1766 24.4268L41.137 24.3872L41.0973 24.3475V24.2682H41.0577H41.018V24.1889L40.9387 24.1096V24.0699V24.0303H40.8991H40.8594C40.8065 23.8188 40.7537 23.6205 40.7008 23.4355C40.6479 23.2504 40.6215 23.0522 40.6215 22.8407V2.53785C40.6215 1.85052 40.8726 1.25571 41.3749 0.753425C41.8772 0.251142 42.472 0 43.1593 0C43.8467 0 44.4415 0.251142 44.9438 0.753425C45.446 1.25571 45.6972 1.85052 45.6972 2.53785V16.734L61.6381 0.793079ZM24.8392 41.0815C23.8347 40.0769 22.883 39.0327 21.9841 37.9488C21.0853 36.8649 20.2394 35.7678 19.4463 34.6575C18.6532 33.4944 17.9262 32.3047 17.2653 31.0887C16.6044 29.8726 15.9832 28.6566 15.4016 27.4405V27.4009V27.2819C15.1901 26.8061 15.0711 26.3302 15.0447 25.8544C15.0183 25.3785 15.0579 24.9291 15.1637 24.5061C15.2165 23.9774 15.3619 23.4883 15.5999 23.0389C15.8378 22.5895 16.1418 22.2062 16.5119 21.889L19.2877 19.1132C19.6049 18.796 19.856 18.4523 20.0411 18.0822C20.2261 17.7121 20.3187 17.3684 20.3187 17.0512C20.3187 16.6811 20.2526 16.3506 20.1204 16.0598C19.9882 15.769 19.8164 15.4915 19.6049 15.2271L15.6395 11.2617C15.2165 10.8387 14.7407 10.5215 14.212 10.31C13.6832 10.0985 13.1545 9.99279 12.6258 9.99279C12.0971 9.99279 11.5684 10.0985 11.0397 10.31C10.5109 10.5215 10.0351 10.8387 9.61211 11.2617L9.57246 11.3014L9.5328 11.341L7.39149 13.403V13.4823C6.91565 13.9582 6.51911 14.4737 6.20187 15.0288C5.88464 15.584 5.62028 16.1788 5.4088 16.8133C5.25018 17.4477 5.14444 18.1086 5.09156 18.796C5.03869 19.4833 5.09156 20.1971 5.25018 20.9373C5.67316 23.0522 6.2944 25.2067 7.11391 27.4009C7.93343 29.595 8.97765 31.8025 10.2466 34.0231C11.4098 36.1908 12.7844 38.3057 14.3706 40.3677C15.9567 42.4297 17.7279 44.4388 19.6842 46.3951C21.5876 48.3514 23.5835 50.1094 25.672 51.6691C27.7604 53.2288 29.8621 54.6167 31.9769 55.8327C34.1975 57.0488 36.4182 58.0798 38.6388 58.9257C40.8594 59.7717 43.0272 60.3797 45.142 60.7498C45.8294 60.9084 46.5167 60.9745 47.204 60.9481C47.8914 60.9217 48.5787 60.8027 49.266 60.5912C49.8476 60.4326 50.4292 60.1814 51.0108 59.8378C51.5924 59.4941 52.1211 59.0844 52.597 58.6085L54.8176 56.3879C55.1877 55.9649 55.4785 55.5023 55.69 55C55.9015 54.4977 56.0072 53.9558 56.0072 53.3742C56.0072 52.8455 55.9015 52.33 55.69 51.8277C55.4785 51.3254 55.1877 50.8628 54.8176 50.4398L50.7729 46.4744V46.3951L50.6936 46.3158C50.4821 46.1043 50.231 45.9457 49.9402 45.8399C49.6494 45.7342 49.3453 45.6813 49.0281 45.6813C48.7109 45.6813 48.3937 45.7474 48.0764 45.8796C47.7592 46.0118 47.4684 46.21 47.204 46.4744L47.1644 46.5141L47.1247 46.5537L44.1903 49.4881C43.8202 49.8582 43.4105 50.1622 42.9611 50.4001C42.5117 50.6381 42.049 50.8099 41.5732 50.9156C41.0445 51.0214 40.529 51.0478 40.0267 50.995C39.5244 50.9421 39.0353 50.8099 38.5595 50.5984C37.3434 50.0697 36.1406 49.4617 34.951 48.7743C33.7614 48.087 32.5585 47.3468 31.3425 46.5537C30.285 45.8135 29.2144 44.994 28.1305 44.0952C27.0466 43.1963 26.0024 42.2447 24.9978 41.2401L24.9582 41.2004L24.8392 41.0815ZM25.8702 34.6972C25.0771 33.7191 24.3369 32.7541 23.6496 31.8025C22.9623 30.745 22.3146 29.6876 21.7066 28.6301C21.0985 27.5727 20.5566 26.5153 20.0807 25.4578L22.8565 22.682C23.6496 21.889 24.2576 21.0166 24.6806 20.0649C25.1036 19.1132 25.3415 18.1615 25.3944 17.2098C25.3944 16.1524 25.2093 15.1478 24.8392 14.1961C24.4691 13.2444 23.914 12.3985 23.1738 11.6583L19.2084 7.69286C18.3095 6.74117 17.2785 6.04062 16.1154 5.5912C14.9522 5.14179 13.789 4.91709 12.6258 4.91709C11.4098 4.91709 10.2334 5.14179 9.09661 5.5912C7.95987 6.04062 6.94208 6.74117 6.04326 7.69286L6.0036 7.73252C5.97717 7.75895 5.93752 7.77217 5.88464 7.77217L3.82264 9.83417C3.08243 10.6273 2.43475 11.4864 1.8796 12.4117C1.32444 13.3369 0.888248 14.3283 0.571017 15.3857C0.253785 16.3903 0.0687335 17.4345 0.0158616 18.5184C-0.0370103 19.6023 0.0422975 20.6994 0.253785 21.8097C0.729632 24.2418 1.43019 26.6871 2.35544 29.1456C3.2807 31.6042 4.43067 34.0759 5.80534 36.5609C7.12713 38.8873 8.63398 41.174 10.3259 43.4211C12.0178 45.6681 13.9212 47.8491 16.036 49.964C18.1509 52.0788 20.3451 53.9954 22.6186 55.7138C24.8921 57.4321 27.192 58.9522 29.5184 60.274C31.9505 61.6486 34.409 62.7986 36.894 63.7239C39.379 64.6491 41.8111 65.3232 44.1903 65.7462C45.3006 65.9577 46.3977 66.037 47.4816 65.9841C48.5655 65.9313 49.6361 65.7462 50.6936 65.429C51.6981 65.1118 52.6631 64.6888 53.5883 64.1601C54.5136 63.6313 55.3727 62.9704 56.1658 62.1774L58.3864 59.9567C59.2853 59.0579 59.9594 58.0401 60.4088 56.9034C60.8582 55.7666 61.0829 54.5902 61.0829 53.3742C61.0829 52.211 60.8582 51.061 60.4088 49.9243C59.9594 48.7875 59.2853 47.7433 58.3864 46.7916L54.4211 42.8262C54.3682 42.8262 54.3285 42.813 54.3021 42.7866C54.2757 42.7602 54.2624 42.7205 54.2624 42.6676C53.5222 41.9803 52.7027 41.4648 51.8039 41.1211C50.9051 40.7775 49.9798 40.6056 49.0281 40.6056C48.0236 40.6056 47.0586 40.7907 46.1334 41.1608C45.2081 41.5309 44.3754 42.086 43.6352 42.8262C43.6352 42.8791 43.622 42.9188 43.5955 42.9452C43.5691 42.9716 43.5294 42.9849 43.4766 42.9849L40.6215 45.9193H40.5422C39.4847 45.4434 38.4273 44.9147 37.3699 44.3331C36.3124 43.7515 35.2814 43.0906 34.2769 42.3504C33.2723 41.6631 32.2809 40.9229 31.3028 40.1298C30.3247 39.3367 29.3862 38.4907 28.4874 37.5919V37.5126C27.5357 36.6138 26.6633 35.6753 25.8702 34.6972Z" fill="#6F34DA"></path> </svg> 