<?xml version="1.0" encoding="UTF-8"?> <svg xmlns="http://www.w3.org/2000/svg" width="65" height="65" viewBox="0 0 65 65" fill="none"> <path fill-rule="evenodd" clip-rule="evenodd" d="M55.7702 65H9.15162C7.90012 65 6.7138 64.7523 5.59266 64.2569C4.47152 63.7615 3.49378 63.1227 2.65945 62.3406C1.82511 61.5584 1.17329 60.6067 0.703971 59.4856C0.234657 58.3644 0 57.152 0 55.8484V9.15162C0 7.95227 0.234657 6.79202 0.703971 5.67088C1.17329 4.54974 1.82511 3.54593 2.65945 2.65945C3.44164 1.87726 4.38026 1.23847 5.47533 0.743081C6.5704 0.247694 7.79583 0 9.15162 0H55.7702C57.0217 0 58.208 0.247694 59.3291 0.743081C60.4503 1.23847 61.428 1.87726 62.2623 2.65945C63.0967 3.44164 63.7485 4.3933 64.2178 5.51444C64.6871 6.63558 64.9218 7.84797 64.9218 9.15162V55.8484C64.9218 57.0477 64.6871 58.208 64.2178 59.3291C63.7485 60.4503 63.0967 61.4541 62.2623 62.3406C61.4801 63.1227 60.5415 63.7615 59.4465 64.2569C58.3514 64.7523 57.126 65 55.7702 65ZM19.1637 41.5343C18.4858 41.5343 17.9122 41.2996 17.4428 40.8303C16.9735 40.361 16.7389 39.7874 16.7389 39.1095C16.7389 38.3795 16.9735 37.7798 17.4428 37.3105C17.9122 36.8412 18.4858 36.6065 19.1637 36.6065H45.9146C46.6446 36.6065 47.2443 36.8412 47.7136 37.3105C48.1829 37.7798 48.4176 38.3795 48.4176 39.1095C48.4176 39.7874 48.1829 40.361 47.7136 40.8303C47.2443 41.2996 46.6446 41.5343 45.9146 41.5343H19.1637ZM55.7702 60.0722H9.15162C8.52587 60.0722 7.95227 59.9549 7.43081 59.7202C6.90935 59.4856 6.49218 59.1857 6.1793 58.8207C5.81428 58.3514 5.51444 57.8821 5.27978 57.4128C5.04513 56.9434 4.9278 56.422 4.9278 55.8484V9.15162C4.9278 8.52587 5.04513 7.9653 5.27978 7.46992C5.51444 6.97453 5.81428 6.54432 6.1793 6.1793C6.59647 5.81428 7.03971 5.51444 7.50903 5.27978C7.97834 5.04513 8.52587 4.9278 9.15162 4.9278H55.7702C56.3959 4.9278 56.9695 5.04513 57.491 5.27978C58.0124 5.51444 58.4296 5.81428 58.7425 6.1793C59.1075 6.59647 59.4073 7.03971 59.642 7.50903C59.8767 7.97834 59.994 8.52587 59.994 9.15162V55.8484C59.994 56.422 59.8767 56.9695 59.642 57.491C59.4073 58.0124 59.1075 58.4557 58.7425 58.8207C58.3253 59.1857 57.8821 59.4856 57.4128 59.7202C56.9434 59.9549 56.3959 60.0722 55.7702 60.0722ZM37.3105 15.6438C37.8319 15.1223 38.4316 14.8616 39.1095 14.8616C39.7874 14.8616 40.361 15.1223 40.8303 15.6438C41.3518 16.2174 41.6125 16.8432 41.6125 17.5211C41.6125 18.199 41.3518 18.7465 40.8303 19.1637L32.5391 27.4549C32.0176 27.9763 31.418 28.2371 30.7401 28.2371C30.0622 28.2371 29.4886 27.9763 29.0193 27.4549L24.0915 22.5271C23.57 22.0056 23.3093 21.4059 23.3093 20.728C23.3093 20.0501 23.57 19.4765 24.0915 19.0072C24.6129 18.4858 25.2256 18.225 25.9296 18.225C26.6336 18.225 27.1941 18.4858 27.6113 19.0072L30.8183 22.2142L37.3105 15.6438ZM17.2082 50.9206C17.6775 51.3899 18.2772 51.6245 19.0072 51.6245H45.7581C46.436 51.6245 47.0096 51.3899 47.4789 50.9206C47.9483 50.4513 48.1829 49.8516 48.1829 49.1215C48.1829 48.4436 47.9483 47.87 47.4789 47.4007C47.0096 46.9314 46.436 46.6968 45.7581 46.6968H19.0072C18.2772 46.6968 17.6775 46.9314 17.2082 47.4007C16.7389 47.87 16.5042 48.4436 16.5042 49.1215C16.5042 49.8516 16.7389 50.4513 17.2082 50.9206Z" fill="#6F34DA"></path> </svg> 