<svg width="70" height="70" viewBox="0 0 70 70" fill="none" xmlns="http://www.w3.org/2000/svg">
<path d="M70 35C70 43.6559 67.1774 51.2769 61.5323 57.8629C55.8871 64.3548 48.8777 68.2594 40.504 69.5766V45.1613H48.6895L50.2419 35H40.504V28.3669C40.504 24.7917 42.3858 23.004 46.1492 23.004H50.5242V14.3952C47.8898 13.9247 45.3024 13.6895 42.7621 13.6895C40.0336 13.6895 37.6815 14.207 35.7056 15.2419C33.8239 16.2769 32.3185 17.8293 31.1895 19.8992C30.0605 21.9691 29.496 24.4153 29.496 27.2379V35H20.6048V45.1613H29.496V69.5766C21.1223 68.2594 14.1129 64.3548 8.46774 57.8629C2.82258 51.2769 0 43.6559 0 35C0 25.3091 3.3871 17.0766 10.1613 10.3024C17.0296 3.43414 25.3091 0 35 0C44.6909 0 52.9234 3.43414 59.6976 10.3024C66.5659 17.0766 70 25.3091 70 35Z" fill="white"/>
</svg>
