<?xml version="1.0" encoding="UTF-8"?> <svg xmlns="http://www.w3.org/2000/svg" width="63" height="63" viewBox="0 0 63 63" fill="none"> <path d="M19.9688 20.1094C23.1562 16.9219 27 15.3281 31.5 15.3281C36 15.3281 39.7969 16.9219 42.8906 20.1094C46.0781 23.2031 47.6719 27 47.6719 31.5C47.6719 36 46.0781 39.8438 42.8906 43.0312C39.7969 46.125 36 47.6719 31.5 47.6719C27 47.6719 23.1562 46.125 19.9688 43.0312C16.875 39.8438 15.3281 36 15.3281 31.5C15.3281 27 16.875 23.2031 19.9688 20.1094ZM24.0469 38.9531C26.1094 41.0156 28.5938 42.0469 31.5 42.0469C34.4062 42.0469 36.8906 41.0156 38.9531 38.9531C41.0156 36.8906 42.0469 34.4062 42.0469 31.5C42.0469 28.5938 41.0156 26.1094 38.9531 24.0469C36.8906 21.9844 34.4062 20.9531 31.5 20.9531C28.5938 20.9531 26.1094 21.9844 24.0469 24.0469C21.9844 26.1094 20.9531 28.5938 20.9531 31.5C20.9531 34.4062 21.9844 36.8906 24.0469 38.9531ZM50.9062 12.0938C51.6562 12.75 52.0312 13.5938 52.0312 14.625C52.0312 15.6562 51.6562 16.5469 50.9062 17.2969C50.25 18.0469 49.4062 18.4219 48.375 18.4219C47.3438 18.4219 46.4531 18.0469 45.7031 17.2969C44.9531 16.5469 44.5781 15.6562 44.5781 14.625C44.5781 13.5938 44.9531 12.75 45.7031 12.0938C46.4531 11.3438 47.3438 10.9688 48.375 10.9688C49.4062 10.9688 50.25 11.3438 50.9062 12.0938ZM62.8594 18.5625C62.9531 21.0938 63 25.4062 63 31.5C63 37.5938 62.9531 41.9062 62.8594 44.4375C62.5781 50.1562 60.8438 54.6094 57.6562 57.7969C54.5625 60.8906 50.1562 62.5312 44.4375 62.7188C41.9062 62.9062 37.5938 63 31.5 63C25.4062 63 21.0938 62.9062 18.5625 62.7188C12.8438 62.4375 8.4375 60.75 5.34375 57.6562C4.125 56.5312 3.14062 55.2188 2.39062 53.7188C1.64062 52.2188 1.07812 50.7656 0.703125 49.3594C0.421875 47.9531 0.28125 46.3125 0.28125 44.4375C0.09375 41.9062 0 37.5938 0 31.5C0 25.4062 0.09375 21.0469 0.28125 18.4219C0.5625 12.7969 2.25 8.4375 5.34375 5.34375C8.4375 2.15625 12.8438 0.421875 18.5625 0.140625C21.0938 0.046875 25.4062 0 31.5 0C37.5938 0 41.9062 0.046875 44.4375 0.140625C50.1562 0.421875 54.5625 2.15625 57.6562 5.34375C60.8438 8.4375 62.5781 12.8437 62.8594 18.5625ZM56.1094 50.0625C56.3906 49.3125 56.625 48.375 56.8125 47.25C57 46.0312 57.1406 44.625 57.2344 43.0312C57.3281 41.3438 57.375 39.9844 57.375 38.9531C57.375 37.9219 57.375 36.4688 57.375 34.5938C57.375 32.7188 57.375 31.6875 57.375 31.5C57.375 31.2188 57.375 30.1875 57.375 28.4062C57.375 26.5312 57.375 25.0781 57.375 24.0469C57.375 23.0156 57.3281 21.7031 57.2344 20.1094C57.1406 18.4219 57 17.0156 56.8125 15.8906C56.625 14.6719 56.3906 13.6875 56.1094 12.9375C54.9844 10.0312 52.9688 8.01562 50.0625 6.89062C49.3125 6.60938 48.3281 6.375 47.1094 6.1875C45.9844 6 44.5781 5.85938 42.8906 5.76562C41.2969 5.67187 39.9844 5.625 38.9531 5.625C38.0156 5.625 36.5625 5.625 34.5938 5.625C32.7188 5.625 31.6875 5.625 31.5 5.625C31.3125 5.625 30.2812 5.625 28.4062 5.625C26.5312 5.625 25.0781 5.625 24.0469 5.625C23.0156 5.625 21.6562 5.67187 19.9688 5.76562C18.375 5.85938 16.9688 6 15.75 6.1875C14.625 6.375 13.6875 6.60938 12.9375 6.89062C10.0312 8.01562 8.01562 10.0312 6.89062 12.9375C6.60938 13.6875 6.375 14.6719 6.1875 15.8906C6 17.0156 5.85938 18.4219 5.76562 20.1094C5.67188 21.7031 5.625 23.0156 5.625 24.0469C5.625 24.9844 5.625 26.4375 5.625 28.4062C5.625 30.2812 5.625 31.3125 5.625 31.5C5.625 31.875 5.625 32.7656 5.625 34.1719C5.625 35.4844 5.625 36.6094 5.625 37.5469C5.625 38.3906 5.625 39.5156 5.625 40.9219C5.71875 42.3281 5.8125 43.5469 5.90625 44.5781C6 45.5156 6.14062 46.5 6.32812 47.5312C6.51562 48.5625 6.70312 49.4062 6.89062 50.0625C8.10938 52.9688 10.125 54.9844 12.9375 56.1094C13.6875 56.3906 14.625 56.625 15.75 56.8125C16.9688 57 18.375 57.1406 19.9688 57.2344C21.6562 57.3281 22.9688 57.375 23.9062 57.375C24.9375 57.375 26.3906 57.375 28.2656 57.375C30.2344 57.375 31.3125 57.375 31.5 57.375C31.7812 57.375 32.8125 57.375 34.5938 57.375C36.4688 57.375 37.9219 57.375 38.9531 57.375C39.9844 57.375 41.2969 57.3281 42.8906 57.2344C44.5781 57.1406 45.9844 57 47.1094 56.8125C48.3281 56.625 49.3125 56.3906 50.0625 56.1094C52.9688 54.8906 54.9844 52.875 56.1094 50.0625Z" fill="white"></path> </svg> 