<?xml version="1.0" encoding="UTF-8"?> <svg xmlns="http://www.w3.org/2000/svg" width="512" height="112"> <defs> <linearGradient y2="0.199413" x2="0.803946" y1="0.617884" x1="1.229048" id="paint0_linear_2_28"> <stop stop-color="#1D75B9"></stop> <stop stop-color="#2D97EA" offset="1"></stop> </linearGradient> <linearGradient y2="0.018716" x2="0.842075" y1="0.8082" x1="1.102367" id="paint1_linear_2_28"> <stop stop-color="#6F066D"></stop> <stop stop-color="#92278F" offset="1"></stop> </linearGradient> </defs> <g> <title>background</title> <rect fill="none" id="canvas_background" height="402" width="582" y="-1" x="-1"></rect> </g> <g> <title>Layer 1</title> <path id="svg_1" fill="#343440" d="m212.077,32.1358l-19.804,4.11c-1.078,-3.8448 -5.658,-6.8941 -11.451,-6.8941c-5.928,0 -10.374,2.9167 -10.374,7.0267c0,4.6402 4.85,6.4963 16.84,9.8108l2.829,0.7954c7.006,2.1213 11.047,3.8448 16.84,7.6896c5.793,3.8448 8.892,10.3411 8.892,18.4284c0,8.3524 -3.099,14.9814 -9.161,19.8868c-6.063,4.9054 -13.876,7.4246 -23.576,7.4246c-8.892,0 -16.571,-2.1215 -23.037,-6.2314c-6.332,-4.11 -10.508,-9.5457 -12.26,-16.3072l20.208,-4.2425c1.213,5.1706 7.41,9.0154 15.089,9.0154c7.14,0 12.663,-3.1819 12.663,-7.8222c0,-3.0493 -3.098,-5.5683 -9.295,-7.6895l-6.871,-2.1213l-8.487,-2.6516c-2.021,-0.7954 -4.581,-1.9886 -7.679,-3.5796c-2.964,-1.5909 -5.254,-3.1819 -6.871,-4.9054c-3.233,-3.3144 -6.197,-9.1479 -6.197,-15.9094c0,-7.8221 2.829,-14.1859 8.353,-19.0913c5.523,-4.9054 12.798,-7.2918 21.689,-7.2918c7.949,0 14.82,1.9887 20.613,5.8334c5.792,3.8448 9.565,8.7502 11.047,14.7162zm54.561,6.7616c0,-5.1706 -5.254,-9.2805 -11.586,-9.2805c-6.601,0 -12.125,4.5076 -14.954,11.5343l-17.918,-8.485c6.063,-13.1253 18.322,-21.08 32.872,-21.08c8.757,0 16.301,2.6516 22.363,7.8221c6.197,5.1706 9.296,11.5343 9.296,18.8262c0,8.8827 -6.332,18.9587 -19.13,30.3604l-13.337,12.3298l33.141,0l0,18.1633l-62.78,0l0,-14.0533l31.39,-29.0347c7.14,-6.4964 10.643,-12.1972 10.643,-17.1026z" clip-rule="evenodd" fill-rule="evenodd"></path> <path id="svg_2" fill="url(#paint0_linear_2_28)" d="m8.23798,109.779c-5.09787,-2.962 -8.23798,-8.435 -8.23798,-14.3591l0,-78.8398c0,-5.9229 3.14011,-11.39684 8.23798,-14.3587c5.09742,-2.96186 11.37772,-2.96186 16.47592,0l67.8476,39.4199c5.0983,2.9623 8.2385,8.4354 8.2385,14.3587c0,5.9237 -3.1402,11.3977 -8.2385,14.3591l-67.8476,39.4199c-2.5487,1.481 -5.3929,2.221 -8.2379,2.221c-2.8447,0 -5.6889,-0.74 -8.23802,-2.221z"></path> <path id="svg_3" fill="url(#paint1_linear_2_28)" d="m47.5738,15.6914c-8.0812,-3.8474 -23.2906,4.4029 -25.1522,18.4846c-1.4939,11.5646 3.4694,18.6375 8.4356,25.2668c4.7702,6.3668 10.0641,12.4396 11.6637,22.1379c2.6214,14.8288 -7.4725,22.0993 -10.0711,23.7033l60.1118,-34.9249c5.0983,-2.9614 8.2384,-8.4354 8.2384,-14.3591c0,-5.9233 -3.1401,-11.3964 -8.2384,-14.3587l-44.9878,-25.9499z"></path> <path id="svg_4" fill="#E62F6D" d="m70.7841,28.8309c-9.5572,-3.3312 -18.0522,5.0283 -18.0522,13.8213c0,7.8828 3.854,11.5519 8.201,16.0979c4.347,4.5461 6.4547,6.262 8.1831,12.8465c1.9483,6.8568 -1.0311,10.6019 -2.0086,13.2859l26.047,-14.7318c5.1742,-2.9468 8.3606,-8.3938 8.3606,-14.2883c0,-5.8941 -3.1864,-11.3403 -8.3606,-14.2879l-22.3703,-12.7436z"></path> </g> </svg> 