<?xml version="1.0" encoding="UTF-8"?> <svg xmlns="http://www.w3.org/2000/svg" width="516" height="112" viewBox="0 0 516 112" fill="none"> <g clip-path="url(#clip0_0_475)"> <path fill-rule="evenodd" clip-rule="evenodd" d="M212.077 32.1361L192.273 36.246C191.195 32.4012 186.615 29.3519 180.822 29.3519C174.894 29.3519 170.448 32.2687 170.448 36.3786C170.448 41.0189 175.298 42.8749 187.288 46.1894L190.117 46.9849C197.123 49.1061 201.164 50.8297 206.957 54.6744C212.75 58.5192 215.849 65.0156 215.849 73.1028C215.849 81.4553 212.75 88.0842 206.688 92.9896C200.625 97.895 192.812 100.414 183.112 100.414C174.22 100.414 166.541 98.2928 160.075 94.1828C153.743 90.0729 149.567 84.6372 147.815 77.8757L168.023 73.6332C169.236 78.8037 175.433 82.6485 183.112 82.6485C190.252 82.6485 195.775 79.4666 195.775 74.8264C195.775 71.7771 192.677 69.2581 186.48 67.1368L179.609 65.0156L171.122 62.364C169.101 61.5685 166.541 60.3753 163.443 58.7844C160.479 57.1934 158.189 55.6025 156.572 53.879C153.339 50.5645 150.375 44.731 150.375 37.9695C150.375 30.1474 153.204 23.7836 158.728 18.8782C164.251 13.9728 171.526 11.5864 180.417 11.5864C188.366 11.5864 195.237 13.5751 201.03 17.4199C206.822 21.2647 210.595 26.1701 212.077 32.1361ZM266.638 38.8976C266.638 33.727 261.384 29.6171 255.052 29.6171C248.451 29.6171 242.927 34.1248 240.098 41.1514L222.18 32.6664C228.243 19.5411 240.502 11.5864 255.052 11.5864C263.809 11.5864 271.353 14.238 277.415 19.4086C283.612 24.5791 286.711 30.9429 286.711 38.2347C286.711 47.1175 280.379 57.1934 267.581 68.5952L254.244 80.925H287.385V99.0882H224.605V85.0349L255.995 56.0002C263.135 49.5039 266.638 43.803 266.638 38.8976Z" fill="white"></path> <path d="M8.23798 109.779C3.14011 106.817 0 101.344 0 95.4199V16.5801C0 10.6572 3.14011 5.18326 8.23798 2.2214C13.3354 -0.740465 19.6157 -0.740465 24.7139 2.2214L92.5615 41.6413C97.6598 44.6036 100.8 50.0767 100.8 56C100.8 61.9237 97.6598 67.3977 92.5615 70.3591L24.7139 109.779C22.1652 111.26 19.321 112 16.476 112C13.6313 112 10.7871 111.26 8.23798 109.779Z" fill="url(#paint0_linear_0_475)"></path> <path d="M47.5738 15.6917C39.4926 11.8442 24.2832 20.0945 22.4216 34.1762C20.9277 45.7409 25.891 52.8137 30.8572 59.443C35.6274 65.8098 40.9213 71.8826 42.5209 81.5809C45.1423 96.4098 35.0484 103.681 32.4498 105.285L92.5616 70.3594C97.6599 67.3979 100.8 61.924 100.8 56.0002C100.8 50.0769 97.6599 44.6038 92.5616 41.6415L47.5738 15.6917Z" fill="url(#paint1_linear_0_475)"></path> <path d="M70.7841 28.8458C61.2269 25.4483 52.7319 33.9742 52.7319 42.9423C52.7319 50.9821 56.5859 54.7242 60.9329 59.3608C65.2799 63.9974 67.3876 65.7475 69.116 72.463C71.0643 79.4564 68.0849 83.2761 67.1074 86.0136L93.1544 70.9884C98.3286 67.9829 101.515 62.4274 101.515 56.4156C101.515 50.4041 98.3286 44.8495 93.1544 41.8431L70.7841 28.8458Z" fill="#E62F6D"></path> <rect x="332" width="184" height="104" rx="3.86207" fill="white" stroke="#343440" stroke-width="1.93103"></rect> <path d="M396.756 68.2305V76H371.023V68.2305H396.756ZM374.277 27.6562V76H364.316V27.6562H374.277ZM393.402 47.3457V54.916H371.023V47.3457H393.402ZM396.723 27.6562V35.459H371.023V27.6562H396.723ZM404.001 27.6562H422.03C425.727 27.6562 428.903 28.2096 431.559 29.3164C434.238 30.4232 436.296 32.0612 437.735 34.2305C439.174 36.3997 439.893 39.0671 439.893 42.2324C439.893 44.8223 439.451 47.0469 438.565 48.9062C437.702 50.7435 436.473 52.2819 434.88 53.5215C433.308 54.7389 431.46 55.7129 429.335 56.4434L426.18 58.1035H410.508L410.442 50.334H422.096C423.845 50.334 425.295 50.0241 426.446 49.4043C427.597 48.7845 428.46 47.9212 429.036 46.8145C429.633 45.7077 429.932 44.4238 429.932 42.9629C429.932 41.4134 429.645 40.0742 429.069 38.9453C428.494 37.8164 427.619 36.9531 426.446 36.3555C425.273 35.7578 423.801 35.459 422.03 35.459H413.962V76H404.001V27.6562ZM431.028 76L420.005 54.4512L430.53 54.3848L441.686 75.5352V76H431.028ZM467.824 58.7676H455.505V50.998H467.824C469.727 50.998 471.277 50.6882 472.472 50.0684C473.667 49.4264 474.542 48.541 475.095 47.4121C475.649 46.2832 475.925 45.0104 475.925 43.5938C475.925 42.1549 475.649 40.8158 475.095 39.5762C474.542 38.3366 473.667 37.3405 472.472 36.5879C471.277 35.8353 469.727 35.459 467.824 35.459H458.958V76H448.997V27.6562H467.824C471.609 27.6562 474.852 28.3424 477.552 29.7148C480.275 31.0651 482.356 32.9355 483.794 35.3262C485.233 37.7168 485.953 40.4505 485.953 43.5273C485.953 46.6484 485.233 49.349 483.794 51.6289C482.356 53.9089 480.275 55.6686 477.552 56.9082C474.852 58.1478 471.609 58.7676 467.824 58.7676Z" fill="#343440"></path> </g> <defs> <linearGradient id="paint0_linear_0_475" x1="123.888" y1="69.203" x2="81.0378" y2="22.3343" gradientUnits="userSpaceOnUse"> <stop stop-color="#1D75B9"></stop> <stop offset="1" stop-color="#2D97EA"></stop> </linearGradient> <linearGradient id="paint1_linear_0_475" x1="108.851" y1="87.9192" x2="88.3794" y2="16.4416" gradientUnits="userSpaceOnUse"> <stop stop-color="#6F066D"></stop> <stop offset="1" stop-color="#92278F"></stop> </linearGradient> <clipPath id="clip0_0_475"> <rect width="129" height="28" fill="white" transform="scale(4)"></rect> </clipPath> </defs> </svg> 