<svg width="77" height="45" viewBox="0 0 77 45" fill="none" xmlns="http://www.w3.org/2000/svg">
<path d="M73.9688 3.09375C73.6875 4.5 72.5625 6.79687 70.5938 9.98438C68.7188 13.1719 66.9844 15.9844 65.3906 18.4219C63.7969 20.7656 62.9531 21.9844 62.8594 22.0781C62.2969 22.9219 62.0156 23.5312 62.0156 23.9062C62.0156 24.2812 62.2969 24.9375 62.8594 25.875C62.8594 25.875 63.1406 26.2031 63.7031 26.8594C64.3594 27.5156 65.1094 28.2656 65.9531 29.1094C66.7969 29.9531 67.7344 30.9375 68.7656 32.0625C69.7969 33.1875 70.7344 34.3125 71.5781 35.4375C72.5156 36.4688 73.3125 37.5469 73.9688 38.6719C74.7188 39.7969 75.2344 40.7344 75.5156 41.4844C76.1719 43.8281 75.2344 45 72.7031 45H64.4062C63.75 45 63.1875 44.9062 62.7188 44.7188C62.25 44.5312 61.7344 44.2031 61.1719 43.7344C60.6094 43.2656 60.0938 42.75 59.625 42.1875C59.1562 41.625 58.4531 40.8281 57.5156 39.7969C56.5781 38.7656 55.6406 37.7812 54.7031 36.8438C50.9531 33.2812 48.1875 31.5 46.4062 31.5C45.2812 31.5 44.625 31.8281 44.4375 32.4844C44.25 33.1406 44.1562 35.0156 44.1562 38.1094C44.25 39.6094 44.2969 40.8281 44.2969 41.7656C44.2969 42.8906 43.9219 43.7344 43.1719 44.2969C42.4219 44.7656 40.7812 45 38.25 45C33.8438 45 29.3906 43.6875 24.8906 41.0625C20.3906 38.4375 16.4531 34.6875 13.0781 29.8125C9.89062 25.5 7.21875 21.2344 5.0625 17.0156C3 12.7031 1.64062 9.42188 0.984375 7.17188C0.328125 4.92188 0 3.32813 0 2.39062C0 0.796875 0.9375 0 2.8125 0H11.1094C12.1406 0 12.8906 0.234375 13.3594 0.703125C13.9219 1.17187 14.3906 2.01562 14.7656 3.23438C16.7344 8.95313 19.125 14.0625 21.9375 18.5625C24.8438 23.0625 27.0469 25.3125 28.5469 25.3125C29.1094 25.3125 29.4844 25.125 29.6719 24.75C29.9531 24.2812 30.0938 23.4375 30.0938 22.2188V9.98438C30 8.67188 29.7656 7.54688 29.3906 6.60938C29.0156 5.67187 28.6406 5.01563 28.2656 4.64062C27.8906 4.17188 27.5156 3.70312 27.1406 3.23438C26.8594 2.76563 26.7188 2.34375 26.7188 1.96875C26.7188 1.59375 26.8125 1.26562 27 0.984375C27.1875 0.703125 27.4219 0.46875 27.7031 0.28125C28.0781 0.09375 28.4531 0 28.8281 0H41.9062C43.4062 0 44.1562 1.03125 44.1562 3.09375V19.4062C44.1562 21 44.5781 21.7969 45.4219 21.7969C46.3594 21.7969 47.6719 20.9531 49.3594 19.2656C51.1406 17.2969 52.875 14.9062 54.5625 12.0938C56.25 9.28125 57.5156 6.9375 58.3594 5.0625L59.625 2.39062C60.2812 0.796875 61.4531 0 63.1406 0H71.4375C73.6875 0 74.5312 1.03125 73.9688 3.09375Z" fill="white"/>
</svg>
