<?xml version="1.0" encoding="UTF-8"?> <svg xmlns="http://www.w3.org/2000/svg" width="77" height="54" viewBox="0 0 77 54" fill="none"> <path d="M75.2344 8.4375C75.5156 9.5625 75.75 10.9688 75.9375 12.6562C76.2188 14.3438 76.4062 16.0312 76.5 17.7188C76.5938 19.3125 76.6406 20.8125 76.6406 22.2188C76.7344 23.625 76.7812 24.7969 76.7812 25.7344V27C76.7812 35.4375 76.2656 41.6719 75.2344 45.7031C74.7656 47.2969 73.9219 48.7031 72.7031 49.9219C71.4844 51.1406 70.0312 51.9844 68.3438 52.4531C66.5625 52.9219 63.1875 53.2969 58.2188 53.5781C53.25 53.7656 48.7031 53.9062 44.5781 54H38.3906C22.3594 54 12.375 53.4844 8.4375 52.4531C4.78125 51.4219 2.48438 49.1719 1.54688 45.7031C1.07812 43.9219 0.703125 41.4844 0.421875 38.3906C0.234375 35.2031 0.09375 32.5312 0 30.375V27C0 18.6562 0.515625 12.4688 1.54688 8.4375C2.01562 6.75 2.85938 5.29688 4.07812 4.07812C5.29688 2.85937 6.75 2.01562 8.4375 1.54688C10.2188 1.07813 13.5938 0.75 18.5625 0.5625C23.5312 0.28125 28.0781 0.09375 32.2031 0H38.3906C54.4219 0 64.4062 0.515625 68.3438 1.54688C70.0312 2.01562 71.4844 2.85937 72.7031 4.07812C73.9219 5.29688 74.7656 6.75 75.2344 8.4375ZM30.5156 38.5312L50.625 27L30.5156 15.6094V38.5312Z" fill="white"></path> </svg> 